<?xml version="1.0" encoding="UTF-8"?>
<svg id="Layer_2" data-name="Layer 2" xmlns="http://www.w3.org/2000/svg" viewBox="0 0 42.62 41.62">
  <defs>
    <style>
      .cls-1 {
        fill: #2a2a2a;
      }

      .cls-1, .cls-2, .cls-3 {
        stroke-width: 0px;
      }

      .cls-2 {
        fill: #ffb600;
      }

      .cls-3 {
        fill: #fff;
      }
    </style>
  </defs>
  <g id="Layer_1-2" data-name="Layer 1">
    <path class="cls-3" d="M35.35,6.94c-3.87-3.9-8.58-5.85-14.15-5.85s-10.2,1.95-14.1,5.85C3.2,10.8,1.25,15.5,1.25,21.04s1.95,10.28,5.85,14.15c3.9,3.93,8.6,5.9,14.1,5.9s10.28-1.97,14.15-5.9c1.07-1,1.97-2.08,2.7-3.25,2.13-3.17,3.2-6.8,3.2-10.9s-1.07-7.68-3.2-10.85c-.73-1.17-1.63-2.25-2.7-3.25M36.25,21.04c0,3.1-.8,5.83-2.4,8.2-.53.87-1.2,1.68-2,2.45-2.9,2.93-6.43,4.4-10.6,4.4s-7.67-1.47-10.6-4.4c-2.93-2.9-4.4-6.45-4.4-10.65s1.47-7.65,4.4-10.55c2.93-2.93,6.47-4.4,10.6-4.4s7.7,1.47,10.6,4.4c.8.73,1.47,1.55,2,2.45,1.6,2.37,2.4,5.07,2.4,8.1"/>
    <path class="cls-2" d="M33.85,29.24c1.6-2.37,2.4-5.1,2.4-8.2s-.8-5.73-2.4-8.1c-.53-.9-1.2-1.72-2-2.45-2.9-2.93-6.43-4.4-10.6-4.4s-7.67,1.47-10.6,4.4c-2.93,2.9-4.4,6.42-4.4,10.55s1.47,7.75,4.4,10.65c2.93,2.93,6.47,4.4,10.6,4.4s7.7-1.47,10.6-4.4c.8-.77,1.47-1.58,2-2.45Z"/>
    <g id="Layer0_0_STROKES_1_FILL" data-name="Layer0 0 STROKES 1 FILL">
      <path class="cls-1" d="M34.25,4.64c-.87-.34-2.11-.89-3.7-1.65-1.61-.77-2.98-1.32-4.1-1.65-1.07-.28-2.22-.55-3.45-.8-1.2-.23-2.55-.39-4.05-.5-1.53-.11-3.03.02-4.5.4l-.05.05c-1.45.43-2.82,1.16-4.1,2.2v.05c-1.15,1.01-2.17,1.93-3.05,2.75l-.05.05c-.83.89-1.65,1.81-2.45,2.75v.05c-.77,1.01-1.53,2.31-2.3,3.9-.74,1.65-1.23,3.05-1.45,4.2-.18,1.1-.43,2.27-.75,3.5-.31,1.41-.33,2.91-.05,4.5.29,1.56.72,3.01,1.3,4.35h.05c.63,1.34,1.31,2.51,2.05,3.5h-.05c.72,1.01,1.47,2.11,2.25,3.3.89,1.3,1.73,2.33,2.5,3.1h0c.87.87,2.13,1.5,3.8,1.9h0c1.62.41,3.02.58,4.2.5,1.04-.06,2.31.02,3.8.25,1.79.35,3.26.37,4.4.05,1.1-.23,2.36-.63,3.8-1.2,1.46-.52,2.81-1.07,4.05-1.65h0c1.39-.61,2.55-1.39,3.5-2.35h0c.93-.88,1.77-1.98,2.5-3.3h0c.79-1.27,1.34-2.59,1.65-3.95.34-1.19.72-2.36,1.15-3.5.51-1.17.88-2.57,1.1-4.2.64-1.99.45-3.19-.55-3.6-.21-.26-.38-.97-.5-2.15-.19-1.83-.86-3.38-2-4.65v.05c-.89-1.02-1.61-2.12-2.15-3.3v-.05c-.69-1.49-1.62-2.46-2.8-2.9M25.9,3.29c1.04.3,2.31.8,3.8,1.5,1.64.78,2.9,1.34,3.8,1.7.72.32,1.31.96,1.75,1.9h-.05c.63,1.36,1.46,2.62,2.5,3.8h0c.86.96,1.36,2.13,1.5,3.5.21,2.1.7,3.31,1.45,3.65.03.13-.09.58-.35,1.35-.02.08-.04.15-.05.2-.18,1.49-.5,2.75-.95,3.8-.47,1.22-.89,2.47-1.25,3.75h0c-.26,1.18-.73,2.31-1.4,3.4l-.05.05c-.63,1.14-1.35,2.09-2.15,2.85v.05c-.79.78-1.75,1.41-2.9,1.9l-.05.05c-1.19.56-2.49,1.09-3.9,1.6-1.35.53-2.55.89-3.6,1.1h0c-.92.25-2.11.23-3.55-.05-1.67-.27-3.09-.37-4.25-.3-1.01.06-2.21-.09-3.6-.45-1.27-.3-2.23-.77-2.9-1.4v.05c-.69-.7-1.44-1.63-2.25-2.8-.78-1.21-1.53-2.33-2.25-3.35h0c-.66-.91-1.28-1.97-1.85-3.2v.05c-.52-1.2-.92-2.5-1.2-3.9-.22-1.31-.2-2.54.05-3.7.32-1.27.57-2.47.75-3.6.21-1.01.64-2.25,1.3-3.7.69-1.43,1.38-2.61,2.05-3.55h.05c.73-.89,1.5-1.76,2.3-2.6h0c.86-.82,1.85-1.72,2.95-2.7h0c1.05-.86,2.17-1.48,3.35-1.85h0c1.26-.32,2.54-.44,3.85-.35,1.4.09,2.67.24,3.8.45,1.17.25,2.27.52,3.3.8"/>
    </g>
    <path class="cls-3" d="M35.5,14.04v.05c-.55-.94-1.35-2.05-2.4-3.35-1.07-1.32-2.12-2.29-3.15-2.9-.94-.61-2.27-1.16-4-1.65v-.05c-1.64-.44-2.9-.69-3.8-.75h0c-.87-.04-2.14.04-3.8.25h0c-1.63.25-3.18.72-4.65,1.4-1.45.7-2.65,1.6-3.6,2.7h-.05c-.88,1.08-1.65,2.18-2.3,3.3h-.05c-.59,1.09-1.11,2.11-1.55,3.05,0,.03-.03.05-.05.05-.43,1.07-.65,2.51-.65,4.3h0c.03,1.68.12,3.18.25,4.5h0c.18,1.44.55,2.71,1.1,3.8.56,1.19,1.73,2.19,3.5,3,1.46.69,2.56,1.32,3.3,1.9.86.7,1.96,1.51,3.3,2.45,1.7,1.16,3.32,1.43,4.85.8l-.05.05c1.2-.42,2.35-.74,3.45-.95,1.31-.19,2.56-.59,3.75-1.2,1.21-.61,2.33-1.44,3.35-2.5h.05c1-.92,1.93-1.84,2.8-2.75h0c1.08-1.04,1.67-2.31,1.75-3.8.1-1.21.23-2.74.4-4.6.02-.21-.03-.41-.15-.6-.67-1.2-.97-2.2-.9-3,.24-1.15,0-2.32-.7-3.5M33.8,15.09h0c.43.72.58,1.42.45,2.1-.21,1.11.1,2.46.95,4.05-.14,1.75-.26,3.2-.35,4.35v.05c-.06.97-.44,1.79-1.15,2.45l-.05.05c-.83.89-1.75,1.79-2.75,2.7v.05c-.89.88-1.86,1.58-2.9,2.1-1.01.53-2.08.88-3.2,1.05-1.2.22-2.45.55-3.75,1h0c-.94.34-1.94.14-3-.6-1.3-.9-2.36-1.68-3.2-2.35-.83-.66-2.06-1.37-3.7-2.15-1.26-.59-2.11-1.29-2.55-2.1-.45-.91-.75-1.96-.9-3.15-.13-1.26-.22-2.69-.25-4.3,0-1.42.17-2.57.5-3.45,0,0,0-.02,0-.05.44-.88.94-1.83,1.5-2.85h0c.61-1.02,1.33-2.02,2.15-3h0c.78-.9,1.77-1.63,2.95-2.2,1.3-.59,2.66-.99,4.1-1.2,1.46-.19,2.58-.27,3.35-.25h.05c.78.07,1.9.31,3.35.7h0c1.51.44,2.67.92,3.5,1.45.87.52,1.75,1.34,2.65,2.45.98,1.2,1.73,2.24,2.25,3.1"/>
  </g>
</svg>