<?xml version="1.0" encoding="UTF-8"?>
<svg id="Layer_2" data-name="Layer 2" xmlns="http://www.w3.org/2000/svg" viewBox="0 0 42.43 41.88">
  <defs>
    <style>
      .cls-1 {
        fill: #2a2a2a;
      }

      .cls-1, .cls-2, .cls-3 {
        stroke-width: 0px;
      }

      .cls-2 {
        fill: #fc5c65;
      }

      .cls-3 {
        fill: #fff;
      }
    </style>
  </defs>
  <g id="Layer_1-2" data-name="Layer 1">
    <path class="cls-3" d="M35.23,7.25c-3.87-3.9-8.58-5.85-14.15-5.85s-10.2,1.95-14.1,5.85C3.08,11.12,1.13,15.82,1.13,21.35s1.95,10.28,5.85,14.15c3.9,3.93,8.6,5.9,14.1,5.9s10.28-1.97,14.15-5.9c1.07-1,1.97-2.08,2.7-3.25,2.13-3.17,3.2-6.8,3.2-10.9s-1.07-7.68-3.2-10.85c-.73-1.17-1.63-2.25-2.7-3.25M36.13,21.35c0,3.1-.8,5.83-2.4,8.2-.53.87-1.2,1.68-2,2.45-2.9,2.93-6.43,4.4-10.6,4.4s-7.67-1.47-10.6-4.4c-2.93-2.9-4.4-6.45-4.4-10.65s1.47-7.65,4.4-10.55c2.93-2.93,6.47-4.4,10.6-4.4s7.7,1.47,10.6,4.4c.8.73,1.47,1.55,2,2.45,1.6,2.37,2.4,5.07,2.4,8.1Z"/>
    <path class="cls-2" d="M33.73,29.55c1.6-2.37,2.4-5.1,2.4-8.2s-.8-5.73-2.4-8.1c-.53-.9-1.2-1.72-2-2.45-2.9-2.93-6.43-4.4-10.6-4.4s-7.67,1.47-10.6,4.4c-2.93,2.9-4.4,6.42-4.4,10.55s1.47,7.75,4.4,10.65c2.93,2.93,6.47,4.4,10.6,4.4s7.7-1.47,10.6-4.4c.8-.77,1.47-1.58,2-2.45Z"/>
    <g id="Layer0_0_STROKES_1_FILL" data-name="Layer0 0 STROKES 1 FILL">
      <path class="cls-1" d="M34.63,5.4l-.05-.05c-.68-.89-1.85-1.72-3.5-2.5-1.44-.7-2.77-1.35-4-1.95h-.05C25.71.27,24.21-.03,22.53,0c-1.55.03-3.16.33-4.85.9h0c-1.47.55-2.69.92-3.65,1.1h-.05c-.99.26-2.07.61-3.25,1.05-1.31.51-2.41,1.38-3.3,2.6h-.05c-.68,1.01-1.53,1.84-2.55,2.5h0c-1.33.88-2.18,2.28-2.55,4.2v.05c-.25,1.6-.58,3-1,4.2v.05c-.4,1.28-.75,2.33-1.05,3.15v.05c-.33.94-.3,2.41.1,4.4H.33c.42,1.87.84,3.37,1.25,4.5.4,1.09.78,2.17,1.15,3.25.45,1.33,1.38,2.53,2.8,3.6,1.21.92,2.3,1.78,3.25,2.6h0c1.09.93,2.29,1.63,3.6,2.1v-.05c1.23.5,2.58.92,4.05,1.25,1.59.42,2.99.49,4.2.2,1.07-.16,2.19-.2,3.35-.1,1.39.12,2.98-.12,4.75-.7,1.7-.53,2.99-1.03,3.85-1.5l-.05.05c.93-.43,1.98-1.24,3.15-2.45h.05c1.21-1.15,2.2-2.51,2.95-4.1.7-1.44,1.26-2.69,1.7-3.75,0,0,0-.02,0-.05.51-1.05.86-2.15,1.05-3.3v.05c.26-1.08.49-2.55.7-4.4.46-1.66.4-2.74-.2-3.25v.05c-.22-.32-.52-1.1-.9-2.35-.44-1.43-1.01-2.93-1.7-4.5h0c-.69-1.69-1.54-2.96-2.55-3.8l-.05-.05c-.81-.66-1.51-1.38-2.1-2.15M14.43,3.95c1.05-.19,2.37-.57,3.95-1.15h-.05c1.48-.5,2.9-.77,4.25-.8,1.35-.03,2.55.2,3.6.7,1.25.6,2.6,1.25,4.05,1.95,1.3.61,2.23,1.26,2.8,1.95h0c.69.9,1.5,1.73,2.45,2.5h0c.79.7,1.46,1.72,2,3.05v.05c.67,1.5,1.22,2.93,1.65,4.3.49,1.62.9,2.62,1.25,3,.03.03.04.05.05.05.05.23-.03.73-.25,1.5-.02.08-.04.14-.05.2-.19,1.75-.41,3.13-.65,4.15v.05c-.17,1-.47,1.95-.9,2.85,0,.03-.02.05-.05.05-.41,1.04-.96,2.27-1.65,3.7-.64,1.37-1.49,2.53-2.55,3.5v.05c-1,1-1.88,1.68-2.65,2.05h0c-.8.42-1.99.88-3.55,1.35-1.49.48-2.83.68-4,.6-1.34-.1-2.62-.05-3.85.15h0c-.97.21-2.09.14-3.35-.2h-.05c-1.36-.3-2.63-.69-3.8-1.15h0c-1.09-.39-2.09-.98-3-1.75v.05c-.98-.85-2.1-1.75-3.35-2.7-1.05-.79-1.75-1.68-2.1-2.65-.37-1.09-.75-2.19-1.15-3.3-.39-1.07-.79-2.49-1.2-4.25-.3-1.51-.35-2.63-.15-3.35v.05c.3-.85.65-1.93,1.05-3.25h0c.45-1.3.82-2.82,1.1-4.55h-.05c.26-1.31.83-2.28,1.7-2.9v.05c1.24-.81,2.28-1.82,3.1-3.05h0c.65-.88,1.45-1.51,2.4-1.9,1.09-.4,2.09-.71,3-.95"/>
    </g>
    <path class="cls-3" d="M30.28,8.45h.05c-.89-.74-2.17-1.34-3.85-1.8-1.54-.4-3.03-.68-4.45-.85h0c-1.41-.14-2.79-.13-4.15.05-1.39.18-2.82.74-4.3,1.7h0c-1.41.96-2.52,1.86-3.35,2.7h0c-.74.83-1.62,1.69-2.65,2.6h0c-1.3,1.24-1.83,2.61-1.6,4.1.14,1.04.03,2.09-.35,3.15-.48,1.41-.65,2.93-.5,4.55.15,1.7.75,3.2,1.8,4.5.97,1.21,1.94,2.29,2.9,3.25.99,1,2.26,1.91,3.8,2.75,1.67.92,3.06,1.34,4.15,1.25h.05c.95-.03,2.09.07,3.4.3,1.72.33,3.22.1,4.5-.7h0c1.05-.61,1.95-1.02,2.7-1.25h-.05c1-.19,2.13-.93,3.4-2.2h0c1.13-1.09,2.05-2.09,2.75-3,.81-.94,1.39-2.21,1.75-3.8.39-1.48.68-2.91.85-4.3.39-2.69.23-4.34-.5-4.95h0c-.4-.42-.87-1.16-1.4-2.2h0c-.61-1.24-1.4-2.38-2.35-3.4-.85-.92-1.72-1.74-2.6-2.45M29.03,10h0c.82.66,1.62,1.41,2.4,2.25.81.88,1.48,1.84,2,2.9v.05c.66,1.27,1.24,2.15,1.75,2.65.24.42.22,1.54-.05,3.35h0c-.16,1.31-.43,2.66-.8,4.05h0c-.28,1.28-.73,2.3-1.35,3.05-.66.85-1.53,1.79-2.6,2.8v.05c-.93.93-1.75,1.48-2.45,1.65h-.05c-.88.27-1.93.77-3.15,1.5h-.05c-.88.53-1.92.68-3.1.45-1.5-.27-2.78-.39-3.85-.35h-.05c-.8.03-1.83-.3-3.1-1-1.36-.73-2.47-1.53-3.35-2.4-.91-.91-1.82-1.94-2.75-3.1-.79-1-1.24-2.15-1.35-3.45-.12-1.31.01-2.55.4-3.7.49-1.37.64-2.74.45-4.1h0c-.1-.84.22-1.63.95-2.35v.05c1.07-.96,1.99-1.88,2.75-2.75v.05c.74-.76,1.74-1.58,3-2.45v.05c1.19-.78,2.34-1.24,3.45-1.4,1.2-.16,2.42-.17,3.65-.05h.05c1.32.16,2.7.43,4.15.8,1.32.37,2.34.84,3.05,1.4"/>
  </g>
</svg>