<?xml version="1.0" encoding="UTF-8"?>
<svg id="Layer_2" data-name="Layer 2" xmlns="http://www.w3.org/2000/svg" viewBox="0 0 42.53 42.19">
  <defs>
    <style>
      .cls-1 {
        fill: #37d98c;
      }

      .cls-1, .cls-2, .cls-3 {
        stroke-width: 0px;
      }

      .cls-2 {
        fill: #2a2a2a;
      }

      .cls-3 {
        fill: #fff;
      }
    </style>
  </defs>
  <g id="Layer_1-2" data-name="Layer 1">
    <path class="cls-1" d="M33.92,29.29c1.6-2.37,2.4-5.1,2.4-8.2s-.8-5.73-2.4-8.1c-.53-.9-1.2-1.72-2-2.45-2.9-2.93-6.43-4.4-10.6-4.4s-7.67,1.47-10.6,4.4c-2.93,2.9-4.4,6.42-4.4,10.55s1.47,7.75,4.4,10.65c2.93,2.93,6.47,4.4,10.6,4.4s7.7-1.47,10.6-4.4c.8-.77,1.47-1.58,2-2.45Z"/>
    <path class="cls-3" d="M35.42,6.99c-3.87-3.9-8.58-5.85-14.15-5.85s-10.2,1.95-14.1,5.85C3.27,10.86,1.32,15.56,1.32,21.09s1.95,10.28,5.85,14.15c3.9,3.93,8.6,5.9,14.1,5.9s10.28-1.97,14.15-5.9c1.07-1,1.97-2.08,2.7-3.25,2.13-3.17,3.2-6.8,3.2-10.9s-1.07-7.68-3.2-10.85c-.73-1.17-1.63-2.25-2.7-3.25M36.32,21.09c0,3.1-.8,5.83-2.4,8.2-.53.87-1.2,1.68-2,2.45-2.9,2.93-6.43,4.4-10.6,4.4s-7.67-1.47-10.6-4.4c-2.93-2.9-4.4-6.45-4.4-10.65s1.47-7.65,4.4-10.55c2.93-2.93,6.47-4.4,10.6-4.4s7.7,1.47,10.6,4.4c.8.73,1.47,1.55,2,2.45,1.6,2.37,2.4,5.07,2.4,8.1"/>
    <g id="Layer0_0_STROKES_1_FILL" data-name="Layer0 0 STROKES 1 FILL">
      <path class="cls-2" d="M30.42,2.74h-.05c-.82-.32-2.05-.82-3.7-1.5-1.69-.7-3.09-1.1-4.2-1.2-1.06-.11-2.48-.02-4.25.25-1.84.3-3.27.79-4.3,1.45h0c-.87.59-1.84,1.16-2.9,1.7-.02,0-.03,0-.05,0-1.11.65-2.18,1.36-3.2,2.15-1.03.88-1.93,1.84-2.7,2.9v.05c-.73,1.1-1.33,2.26-1.8,3.5h0c-.4,1.13-1.05,2.31-1.95,3.55-1.2,1.66-1.58,3.13-1.15,4.4v.05c.31.99.54,2.34.7,4.05.18,1.95.5,3.5.95,4.65.46,1.16,1.04,2.37,1.75,3.65.82,1.38,1.67,2.44,2.55,3.2.87.77,1.82,1.49,2.85,2.15v-.05c1,.68,2.17,1.47,3.5,2.35,1.44.99,2.79,1.63,4.05,1.9h0c1.37.36,2.81.33,4.3-.1,1.22-.32,2.35-.43,3.4-.35h0c1.36.15,2.79-.08,4.3-.7h0c1.53-.56,2.79-1.33,3.8-2.3l.05-.05c.94-.83,1.97-1.68,3.1-2.55,1.33-.99,2.29-2.04,2.9-3.15.58-.97,1.18-2.06,1.8-3.25.67-1.18,1.27-2.46,1.8-3.85.63-1.52.73-3.12.3-4.8,0-.05-.02-.1-.05-.15-.23-.55-.33-1.24-.3-2.05.04-1.03-.12-2.24-.5-3.65-.36-1.42-1.11-2.74-2.25-3.95h0c-.9-.95-1.63-2.05-2.2-3.3h0c-.69-1.56-1.79-2.71-3.3-3.45-1.29-.64-2.37-1.16-3.25-1.55M29.62,4.59h0c.85.38,1.9.88,3.15,1.5,1.09.53,1.89,1.34,2.4,2.45h-.05c.67,1.48,1.53,2.78,2.6,3.9v-.05c.89.95,1.47,1.99,1.75,3.1.32,1.19.47,2.23.45,3.1-.04,1.15.13,2.12.5,2.9l-.1-.15c.33,1.25.27,2.43-.2,3.55-.5,1.31-1.07,2.53-1.7,3.65-.62,1.17-1.22,2.24-1.8,3.2-.49.89-1.28,1.74-2.35,2.55-1.19.92-2.29,1.82-3.3,2.7h0c-.84.83-1.89,1.48-3.15,1.95h-.05c-1.18.48-2.3.66-3.35.55h-.05c-1.26-.12-2.63.02-4.1.4-1.13.34-2.22.37-3.25.1h-.05c-1.05-.23-2.18-.76-3.4-1.6-1.33-.88-2.5-1.67-3.5-2.35h-.05c-.94-.6-1.8-1.25-2.6-1.95-.72-.64-1.42-1.54-2.1-2.7-.66-1.19-1.21-2.32-1.65-3.4-.38-1.02-.65-2.38-.8-4.1-.18-1.89-.44-3.37-.8-4.45-.16-.77.12-1.67.85-2.7,1.04-1.4,1.79-2.73,2.25-4,.4-1.1.92-2.13,1.55-3.1h0c.67-.91,1.45-1.74,2.35-2.5h-.05c.93-.7,1.9-1.33,2.9-1.9.02,0,.03-.02.05-.05,1.12-.57,2.13-1.17,3.05-1.8v.05c.84-.53,2.01-.91,3.5-1.15,1.56-.25,2.81-.34,3.75-.25.96.1,2.18.45,3.65,1.05,1.65.68,2.88,1.18,3.7,1.5"/>
    </g>
    <path class="cls-3" d="M33.02,9.99c-.85-.89-1.85-1.67-3-2.35v-.05c-1.1-.63-2.36-1.14-3.8-1.55h0c-1.39-.33-2.82-.55-4.3-.65-1.42-.1-2.91-.03-4.45.2-1.62.27-2.92.79-3.9,1.55-.02,0-.03,0-.05,0-.86.74-1.82,1.65-2.9,2.75h0c-.93,1.02-1.87,1.84-2.8,2.45-1.25.9-1.77,2.17-1.55,3.8.16,1.19.19,2.44.1,3.75-.1,1.45-.13,3-.1,4.65v.05c.08,1.84.53,3.37,1.35,4.6.8,1.18,1.72,2.21,2.75,3.1,1.05.91,2.18,1.71,3.4,2.4h-.05c1.27.75,2.5,1.3,3.7,1.65,1.17.34,2.36.63,3.55.85,1.35.3,2.83.08,4.45-.65,1.46-.66,2.77-1.39,3.95-2.2l-.05.05c1.28-.8,2.27-1.6,2.95-2.4.67-.77,1.39-1.9,2.15-3.4v.05c.77-1.36,1.46-2.54,2.05-3.55.72-1.16,1-2.53.85-4.1.03-2.22-.15-3.72-.55-4.5h0c-.33-.65-.8-1.64-1.4-2.95v-.05c-.65-1.39-1.43-2.56-2.35-3.5M29.02,9.34c.98.59,1.83,1.27,2.55,2.05.78.79,1.45,1.78,2,2.95h0c.6,1.35,1.07,2.37,1.4,3.05v-.05c.26.64.38,1.88.35,3.7,0,.06,0,.11,0,.15.11,1.09-.07,2.04-.55,2.85-.61,1.02-1.31,2.22-2.1,3.6h0c-.67,1.34-1.31,2.35-1.9,3.05-.58.66-1.42,1.33-2.5,2h0c-1.09.76-2.31,1.44-3.65,2.05-1.18.53-2.27.7-3.25.5-1.14-.21-2.27-.48-3.4-.8-1.03-.31-2.1-.8-3.2-1.45v-.05c-1.11-.61-2.15-1.33-3.1-2.15-.9-.78-1.7-1.68-2.4-2.7-.61-.97-.94-2.17-1-3.6-.03-1.59,0-3.07.1-4.45.11-1.45.07-2.84-.1-4.15-.12-.8.12-1.44.7-1.9,1.03-.69,2.07-1.61,3.1-2.75v.05c1.02-1.04,1.94-1.9,2.75-2.6l-.05.05c.76-.57,1.76-.97,3-1.2v.05c1.39-.22,2.72-.29,4-.2,1.36.1,2.67.3,3.95.6h-.05c1.26.36,2.38.81,3.35,1.35h0Z"/>
  </g>
</svg>