<?xml version="1.0" encoding="UTF-8"?>
<svg id="Layer_2" data-name="Layer 2" xmlns="http://www.w3.org/2000/svg" viewBox="0 0 42.62 41.62">
  <defs>
    <style>
      .cls-1 {
        fill: #2a2a2a;
      }

      .cls-1, .cls-2, .cls-3 {
        stroke-width: 0px;
      }

      .cls-2 {
        fill: #9179ff;
      }

      .cls-3 {
        fill: #fff;
      }
    </style>
  </defs>
  <g id="Layer_1-2" data-name="Layer 1">
    <path class="cls-3" d="M35.35,6.94c-3.87-3.9-8.58-5.85-14.15-5.85s-10.2,1.95-14.1,5.85C3.2,10.8,1.25,15.5,1.25,21.04s1.95,10.28,5.85,14.15c3.9,3.93,8.6,5.9,14.1,5.9s10.28-1.97,14.15-5.9c1.07-1,1.97-2.08,2.7-3.25,2.13-3.17,3.2-6.8,3.2-10.9s-1.07-7.68-3.2-10.85c-.73-1.17-1.63-2.25-2.7-3.25M36.25,21.04c0,3.1-.8,5.83-2.4,8.2-.53.87-1.2,1.68-2,2.45-2.9,2.93-6.43,4.4-10.6,4.4s-7.67-1.47-10.6-4.4c-2.93-2.9-4.4-6.45-4.4-10.65s1.47-7.65,4.4-10.55c2.93-2.93,6.47-4.4,10.6-4.4s7.7,1.47,10.6,4.4c.8.73,1.47,1.55,2,2.45,1.6,2.37,2.4,5.07,2.4,8.1"/>
    <path class="cls-2" d="M33.85,29.24c1.6-2.37,2.4-5.1,2.4-8.2s-.8-5.73-2.4-8.1c-.53-.9-1.2-1.72-2-2.45-2.9-2.93-6.43-4.4-10.6-4.4s-7.67,1.47-10.6,4.4c-2.93,2.9-4.4,6.42-4.4,10.55s1.47,7.75,4.4,10.65c2.93,2.93,6.47,4.4,10.6,4.4s7.7-1.47,10.6-4.4c.8-.77,1.47-1.58,2-2.45Z"/>
    <g id="Layer0_0_STROKES_1_FILL" data-name="Layer0 0 STROKES 1 FILL">
      <path class="cls-1" d="M14.45.44l-.05.05c-1.45.43-2.82,1.16-4.1,2.2v.05c-1.15,1.01-2.17,1.93-3.05,2.75l-.05.05c-.83.89-1.65,1.81-2.45,2.75v.05c-.77,1.01-1.53,2.31-2.3,3.9-.74,1.65-1.23,3.05-1.45,4.2-.18,1.1-.43,2.27-.75,3.5-.31,1.41-.33,2.91-.05,4.5.29,1.56.72,3.01,1.3,4.35h.05c.63,1.34,1.31,2.51,2.05,3.5h-.05c.72,1.01,1.47,2.11,2.25,3.3.89,1.3,1.73,2.33,2.5,3.1h0c.87.87,2.13,1.5,3.8,1.9h0c1.62.41,3.02.58,4.2.5,1.04-.06,2.31.02,3.8.25,1.79.35,3.26.37,4.4.05,1.1-.23,2.36-.63,3.8-1.2,1.46-.52,2.81-1.07,4.05-1.65h0c1.39-.61,2.55-1.39,3.5-2.35h0c.93-.88,1.77-1.98,2.5-3.3h0c.79-1.27,1.34-2.59,1.65-3.95.34-1.19.72-2.36,1.15-3.5.51-1.17.88-2.57,1.1-4.2.64-1.99.45-3.19-.55-3.6-.21-.26-.38-.97-.5-2.15-.19-1.83-.86-3.38-2-4.65v.05c-.89-1.02-1.61-2.12-2.15-3.3v-.05c-.69-1.49-1.62-2.46-2.8-2.9-.87-.34-2.11-.89-3.7-1.65-1.61-.77-2.98-1.32-4.1-1.65-1.07-.28-2.22-.55-3.45-.8-1.2-.23-2.55-.39-4.05-.5-1.53-.11-3.03.02-4.5.4M14.95,2.39c1.26-.32,2.54-.44,3.85-.35,1.4.09,2.67.24,3.8.45,1.17.25,2.27.52,3.3.8,1.04.3,2.31.8,3.8,1.5,1.64.78,2.9,1.34,3.8,1.7.72.32,1.31.96,1.75,1.9h-.05c.63,1.36,1.46,2.62,2.5,3.8h0c.86.96,1.36,2.13,1.5,3.5.21,2.1.7,3.31,1.45,3.65.03.13-.09.58-.35,1.35-.02.08-.04.15-.05.2-.18,1.49-.5,2.75-.95,3.8-.47,1.22-.89,2.47-1.25,3.75h0c-.26,1.18-.73,2.31-1.4,3.4l-.05.05c-.63,1.14-1.35,2.09-2.15,2.85v.05c-.79.78-1.75,1.41-2.9,1.9l-.05.05c-1.19.56-2.49,1.09-3.9,1.6-1.35.53-2.55.89-3.6,1.1h0c-.92.25-2.11.23-3.55-.05-1.67-.27-3.09-.37-4.25-.3-1.01.06-2.21-.09-3.6-.45-1.27-.3-2.23-.77-2.9-1.4v.05c-.69-.7-1.44-1.63-2.25-2.8-.78-1.21-1.53-2.33-2.25-3.35h0c-.66-.91-1.28-1.97-1.85-3.2v.05c-.52-1.2-.92-2.5-1.2-3.9-.22-1.31-.2-2.54.05-3.7.32-1.27.57-2.47.75-3.6.21-1.01.64-2.25,1.3-3.7.69-1.43,1.38-2.61,2.05-3.55h.05c.73-.89,1.5-1.76,2.3-2.6h0c.86-.82,1.85-1.72,2.95-2.7h0c1.05-.86,2.17-1.48,3.35-1.85h0"/>
    </g>
    <path class="cls-3" d="M32.45,10.19h0c-.98-.84-1.89-1.61-2.75-2.3h0c-.93-.71-2.08-1.26-3.45-1.65h-.05c-1.27-.3-2.65-.48-4.15-.55h-.05c-1.46-.03-2.86.08-4.2.35h-.05c-1.25.32-2.65.74-4.2,1.25-1.7.59-2.92,1.47-3.65,2.65-.59.99-1.24,1.98-1.95,2.95,0,.02-.02.03-.05.05-.76,1.15-1.28,2.4-1.55,3.75v.05c-.18,1.16-.51,2.31-1,3.45-.62,1.57-.47,3.17.45,4.8h.05c.75,1.27,1.32,2.53,1.7,3.8.45,1.61,1.1,2.82,1.95,3.65.79.81,1.92,1.57,3.4,2.3,1.51.73,2.98,1.1,4.4,1.1,1.25.03,2.47.25,3.65.65h0c1.59.57,3,.53,4.25-.1h0c1.05-.47,2.27-1.03,3.65-1.7h-.05c1.53-.69,2.77-1.59,3.7-2.7h.05c.95-1.02,1.7-2.07,2.25-3.15.03-.02.04-.03.05-.05.56-.99,1.16-2.13,1.8-3.4.8-1.43,1-2.95.6-4.55-.25-2.13-.48-3.49-.7-4.1-.21-.58-.7-1.58-1.45-3l.05.05c-.73-1.46-1.63-2.66-2.7-3.6M25.75,8.19c1.08.31,1.98.72,2.7,1.25l.05.05c.82.65,1.7,1.39,2.65,2.2h-.05c.89.79,1.64,1.79,2.25,3h0c.68,1.28,1.11,2.18,1.3,2.7.18.55.38,1.8.6,3.75,0,.05,0,.1,0,.15.32,1.11.2,2.16-.35,3.15-.65,1.27-1.27,2.41-1.85,3.4,0,.02,0,.03,0,.05-.49.96-1.16,1.87-2,2.75v.05c-.78.9-1.8,1.63-3.05,2.2h-.05c-1.35.67-2.53,1.23-3.55,1.7h-.05c-.79.37-1.69.37-2.7,0h-.05c-1.38-.46-2.8-.71-4.25-.75h0c-1.15,0-2.34-.31-3.55-.9-1.25-.61-2.22-1.24-2.9-1.9-.62-.64-1.1-1.57-1.45-2.8-.42-1.43-1.05-2.87-1.9-4.3v.05c-.58-1.04-.7-2.05-.35-3.05.54-1.29.91-2.59,1.1-3.9.23-1.09.65-2.09,1.25-3v.05c.75-1.02,1.44-2.06,2.05-3.1.54-.79,1.4-1.39,2.6-1.8,1.48-.49,2.81-.89,4-1.2,1.2-.23,2.45-.33,3.75-.3h0c1.37.07,2.63.23,3.8.5"/>
  </g>
</svg>