<?xml version="1.0" encoding="UTF-8"?>
<svg id="Layer_2" data-name="Layer 2" xmlns="http://www.w3.org/2000/svg" viewBox="0 0 96.89 24.06">
  <defs>
    <style>
      .cls-1 {
        fill: none;
      }

      .cls-1, .cls-2, .cls-3 {
        stroke-width: 0px;
      }

      .cls-2 {
        fill: #0073e7;
      }

      .cls-3 {
        fill: #fff;
      }
    </style>
  </defs>
  <g id="Layer_1-2" data-name="Layer 1">
    <g>
      <rect class="cls-2" x="0" y="0" width="96.89" height="24.06" rx="7.94" ry="7.94"/>
      <g>
        <path class="cls-3" d="M11.26,13.23h-1.83v3.11h-1.79V7.7h3.76c.87,0,1.56.22,2.07.67s.77,1.13.77,2.07c0,1.02-.26,1.74-.77,2.16s-1.25.63-2.21.63ZM12.1,11.44c.23-.21.35-.54.35-.98s-.12-.77-.35-.96-.57-.29-.99-.29h-1.68v2.54h1.68c.43,0,.76-.1,1-.31Z"/>
        <path class="cls-3" d="M15.5,7.7h1.67v8.64h-1.67V7.7Z"/>
        <path class="cls-3" d="M19.03,10.64c.44-.56,1.2-.84,2.27-.84.7,0,1.32.14,1.86.42s.81.8.81,1.57v2.93c0,.2,0,.45.01.74.01.22.04.37.1.45s.14.14.25.19v.25h-1.82c-.05-.13-.09-.25-.11-.36s-.04-.24-.05-.39c-.23.25-.5.46-.8.64-.36.21-.77.31-1.22.31-.58,0-1.06-.17-1.43-.5s-.57-.8-.57-1.4c0-.79.3-1.35.91-1.71.33-.19.82-.33,1.46-.41l.57-.07c.31-.04.53-.09.66-.15.24-.1.36-.26.36-.47,0-.26-.09-.44-.27-.54s-.45-.15-.8-.15c-.39,0-.67.1-.84.29-.12.14-.2.34-.23.59h-1.61c.04-.56.19-1.02.47-1.38ZM20.28,15.13c.16.13.35.19.57.19.36,0,.69-.11.99-.32s.46-.6.47-1.15v-.62c-.11.07-.21.12-.32.16s-.25.08-.44.11l-.38.07c-.35.06-.6.14-.76.23-.26.15-.39.39-.39.71,0,.29.08.49.24.62Z"/>
        <path class="cls-3" d="M28.06,14.66l1.32-4.71h1.78l-2.19,6.28c-.42,1.21-.76,1.96-1,2.25s-.74.44-1.48.44c-.15,0-.27,0-.36,0s-.22,0-.4-.02v-1.34h.21c.16.02.32.01.47,0s.27-.06.38-.13c.1-.07.19-.21.27-.42s.12-.34.1-.39l-2.34-6.67h1.86l1.39,4.71Z"/>
        <path class="cls-3" d="M40.8,10.76c.54.68.81,1.47.81,2.4s-.27,1.74-.81,2.41-1.36,1-2.46,1-1.92-.33-2.46-1-.81-1.47-.81-2.41.27-1.72.81-2.4,1.36-1.01,2.46-1.01,1.92.34,2.46,1.01ZM38.34,11.16c-.49,0-.86.17-1.13.52s-.4.84-.4,1.48.13,1.13.4,1.48.64.52,1.13.52.86-.17,1.12-.52.39-.84.39-1.48-.13-1.13-.39-1.48-.64-.52-1.12-.52Z"/>
        <path class="cls-3" d="M45.81,11.19c-.57,0-.96.24-1.17.72-.11.25-.16.58-.16.97v3.46h-1.66v-6.38h1.61v.93c.21-.33.42-.56.61-.71.34-.26.78-.39,1.31-.39.66,0,1.2.17,1.62.52s.63.92.63,1.72v4.3h-1.71v-3.88c0-.34-.04-.59-.13-.77-.16-.33-.48-.49-.94-.49Z"/>
        <path class="cls-3" d="M62.01,7.7h1.83l-2.43,8.64h-1.72l-1.04-5.05-.3-1.67-.3,1.67-1.04,5.05h-1.68l-2.45-8.64h1.92l1.14,4.95.25,1.38.25-1.35.97-4.97h1.9l1.03,4.95.26,1.38.26-1.32,1.15-5Z"/>
        <path class="cls-3" d="M70.05,14.46c-.04.38-.24.76-.59,1.15-.55.62-1.31.93-2.3.93-.81,0-1.53-.26-2.15-.79s-.93-1.38-.93-2.55c0-1.11.28-1.95.84-2.54s1.29-.88,2.18-.88c.53,0,1.01.1,1.44.3s.78.51,1.05.94c.25.38.41.82.49,1.32.04.29.06.71.05,1.27h-4.37c.02.64.22,1.09.6,1.35.23.16.51.24.83.24.34,0,.62-.1.84-.29.12-.11.22-.25.31-.44h1.71ZM68.4,12.51c-.03-.44-.16-.78-.4-1s-.54-.34-.89-.34c-.39,0-.69.12-.9.36s-.35.57-.4.98h2.6Z"/>
        <path class="cls-3" d="M74.73,16.51c-.53,0-.95-.11-1.27-.32-.19-.12-.4-.34-.62-.66v.8h-1.63V7.71h1.66v3.07c.21-.3.44-.52.7-.68.3-.2.68-.29,1.15-.29.84,0,1.5.3,1.97.91s.71,1.39.71,2.34-.23,1.81-.7,2.47-1.12.98-1.96.98ZM75.64,13.24c0-.45-.06-.83-.18-1.12-.22-.56-.63-.84-1.23-.84s-1.02.28-1.25.83c-.12.29-.18.67-.18,1.14,0,.55.12,1,.36,1.36s.61.54,1.11.54c.43,0,.76-.17,1-.52s.36-.8.36-1.37Z"/>
        <path class="cls-1" d="M86.68,14.56h-3.18l-.6,1.78h-1.89l3.08-8.64h2.04l3.06,8.64h-1.96l-.56-1.78ZM86.17,13.08l-1.08-3.4-1.11,3.4h2.19Z"/>
      </g>
      <path class="cls-3" d="M88.69,12.9l-5.72,3.3c-.67.39-1.51-.1-1.51-.87v-6.6c0-.78.84-1.26,1.51-.87l5.72,3.3c.67.39.67,1.36,0,1.75Z"/>
    </g>
  </g>
</svg>